GIL02_free2_RRA_states
nRows=8
nColumns=47

# SIMM Motion File Header:
name GIL02_free2_RRA_states
datacolumns 47
datarows 8
otherdata 1
range 0.58800000000000041000 0.59150000000000036000
endheader
time	pelvis_tx	pelvis_ty	pelvis_tz	pelvis_tilt	pelvis_list	pelvis_rotation	hip_flexion_r	hip_adduction_r	hip_rotation_r	knee_angle_r	ankle_angle_r	subtalar_angle_r	mtp_angle_r	hip_flexion_l	hip_adduction_l	hip_rotation_l	knee_angle_l	ankle_angle_l	subtalar_angle_l	mtp_angle_l	lumbar_extension	lumbar_bending	lumbar_rotation	pelvis_tx_u	pelvis_ty_u	pelvis_tz_u	pelvis_tilt_u	pelvis_list_u	pelvis_rotation_u	hip_flexion_r_u	hip_adduction_r_u	hip_rotation_r_u	knee_angle_r_u	ankle_angle_r_u	subtalar_angle_r_u	mtp_angle_r_u	hip_flexion_l_u	hip_adduction_l_u	hip_rotation_l_u	knee_angle_l_u	ankle_angle_l_u	subtalar_angle_l_u	mtp_angle_l_u	lumbar_extension_u	lumbar_bending_u	lumbar_rotation_u
      0.58800000000000041000	      1.69434848579623680000	      0.91805162352272596000	     -0.22691858617757132000	     -0.03804028082080494100	      4.17424444973268120000	     -6.60911662838793120000	    -13.89682633457624100000	     -3.59189523794461920000	     14.43569302957490300000	    -19.08939707458155500000	     14.66632571342075900000	      0.00000000000007347038	     -0.00000000000008670393	     23.92213164719834100000	      2.37223322830281710000	     -0.56061969260747868000	     -7.78509589021073370000	     -9.38397592682562730000	      0.00000000000001843637	     -0.00000000000000708286	     -2.49411155962690460000	     -2.33295664544119270000	     10.64984421008960200000	      1.39328579759125510000	     -0.00105581827636072060	     -0.22206633260910608000	    -17.76565521535839000000	     43.13833051353477500000	     23.00110975515714500000	      4.51093911628220750000	    -62.03378081762080900000	    -37.06986687956497000000	   -119.81186520337901000000	   -141.21801720980591000000	     -0.00000000000001318106	     -0.00000000000047361827	     11.00754942866843300000	     74.58331987887842700000	     66.45295184252096000000	   -125.34393558088574000000	    -41.14216484832133600000	      0.00000000000002145749	     -0.00000000000008303684	     42.92027026515176400000	    -46.80147457368962400000	    -18.33882739286197600000
      0.58850000000000036000	      1.69504536339157670000	      0.91805167190466641000	     -0.22702990713322688000	     -0.04692465940798480600	      4.19586623552283110000	     -6.59755437423441560000	    -13.89438849730631300000	     -3.62298422900291770000	     14.41708231520720300000	    -19.14951960126642700000	     14.59504964101219600000	      0.00000000000007346924	     -0.00000000000008694740	     23.92753027138799400000	      2.40962343470242590000	     -0.52728156663844283000	     -7.84765817347856490000	     -9.40435511194292320000	      0.00000000000001844835	     -0.00000000000000712743	     -2.47263083851653050000	     -2.35639046140719930000	     10.64060602984452300000	      1.39422132789856000000	      0.00124946995916068510	     -0.22321601235006627000	    -17.77148052650008100000	     43.34842966989858600000	     23.24735485998814600000	      5.24138876319884430000	    -62.32177610163050500000	    -37.37282566110219800000	   -120.67974156253197000000	   -143.89179224618755000000	      0.00000000000001527760	     -0.00000000000056530480	     10.58595673486506400000	     74.97680837395263600000	     66.89878645589992300000	   -124.90333426355554000000	    -40.37217080377477900000	      0.00000000000001155030	     -0.00000000000009226938	     43.00156362526052300000	    -46.93360190325187600000	    -18.61353106443609200000
      0.58900000000000041000	      1.69574270388523040000	      0.91805287308198702000	     -0.22714180070259299000	     -0.05581138314660279200	      4.21759247355147780000	     -6.58586984846074230000	    -13.89158396807384200000	     -3.65421659947819590000	     14.39832037651457200000	    -19.21007826533295000000	     14.52242771039676100000	      0.00000000000007347753	     -0.00000000000008723758	     23.93271662252807600000	      2.44720932811841370000	     -0.49372173995977914000	     -7.90999751662080450000	     -9.42434502121350800000	      0.00000000000001845177	     -0.00000000000000717432	     -2.45111104556827500000	     -2.37989002973971160000	     10.63123106599051600000	      1.39513742279622720000	      0.00355529240265794070	     -0.22435676799444831000	    -17.77503670675049800000	     43.55609488808556100000	     23.49015097065942100000	      5.97770409952790340000	    -62.60728500586012000000	    -37.67474969465360600000	   -121.55631158708724000000	   -146.60283085336184000000	      0.00000000000000057993	     -0.00000000000051724906	     10.15847642331293500000	     75.36604660966236200000	     67.33961662206714000000	   -124.45248353758986000000	    -39.58372596307634700000	      0.00000000000000689227	     -0.00000000000009382910	     43.07655963774414700000	    -47.06442506391432800000	    -18.88591363338357000000
      0.58950000000000036000	      1.69644049755840820000	      0.91805522719481547000	     -0.22725426236357840000	     -0.06469931828900929400	      4.23942191695405500000	     -6.57406480554811430000	    -13.88840982790076800000	     -3.68559109679307450000	     14.37940775338680600000	    -19.27107734844880600000	     14.44844061881696400000	      0.00000000000007346743	     -0.00000000000008746763	     23.93768776770835800000	      2.48498876569432300000	     -0.45994279980900687000	     -7.97210898870122440000	     -9.44393577265361370000	      0.00000000000001845681	     -0.00000000000000722211	     -2.42955532901271760000	     -2.40345466754967420000	     10.62172051086942700000	      1.39603397988026900000	      0.00586109983716810550	     -0.22548829771370452000	    -17.77632600298221300000	     43.76128078647365500000	     23.72945400815794100000	      6.71981041109118760000	    -62.89029191710989900000	    -37.97554759068335500000	   -122.44149413466307000000	   -149.35101584054732000000	      0.00000000000000753247	     -0.00000000000050488061	      9.72511631827362240000	     75.75099247502809900000	     67.77534606690420600000	   -123.99162035605653000000	    -38.77689727536186100000	      0.00000000000001275094	     -0.00000000000009671273	     43.14525486941310100000	    -47.19393647783134300000	    -19.15592896662629500000
      0.59000000000000041000	      1.69713873458765050000	      0.91805873409466143000	     -0.22736728741903486000	     -0.07358733207339593400	      4.26135334124503110000	     -6.56214097940713530000	    -13.88486320437879800000	     -3.71710647934848380000	     14.36034502510034400000	    -19.33252118053254900000	     14.37307051272067300000	      0.00000000000007346953	     -0.00000000000008773255	     23.94244076154604500000	      2.52295960660925320000	     -0.42594726601670674000	     -8.03398749305493890000	     -9.46311889762143290000	      0.00000000000001846360	     -0.00000000000000727229	     -2.40796684077167010000	     -2.42708375515482010000	     10.61207553409338400000	      1.39691087025830060000	      0.00816638266780669000	     -0.22661033973650468000	    -17.77535294379794500000	     43.96398930117533900000	     23.96524795646341800000	      7.46763567120097170000	    -63.17082757605176400000	    -38.27516931178833900000	   -123.33520155687486000000	   -152.13629060672861000000	      0.00000000000003005784	     -0.00000000000059039303	      9.28589331582678850000	     76.13165553912749300000	     68.20584131341779300000	   -123.52089157855032000000	    -37.95195067639087200000	      0.00000000000002529570	     -0.00000000000012081547	     43.20764974733548800000	    -47.32218297937552600000	    -19.42356259691829100000
      0.59050000000000036000	      1.69783740513417200000	      0.91806339341323662000	     -0.22748087107237405000	     -0.08247429459495760100	      4.28338548558842370000	     -6.55010014981186470000	    -13.88094125046061000000	     -3.74876150906010120000	     14.34113279528842900000	    -19.39441395667368800000	     14.29629817146617500000	      0.00000000000007348687	     -0.00000000000008802983	     23.94697268652008800000	      2.56111969938028410000	     -0.39173784699223302000	     -8.09562827488226410000	     -9.48188471789425340000	      0.00000000000001847797	     -0.00000000000000733219	     -2.38634872863478180000	     -2.45077663765785610000	     10.60229735358234700000	      1.39776799170709910000	      0.01047067848938307500	     -0.22772259614066834000	    -17.77212014572866000000	     44.16417521825697200000	     24.19748927043403000000	      8.22111066852328240000	    -63.44887265054888600000	    -38.57352488371384400000	   -124.23734789499350000000	   -154.95850399439939000000	      0.00000000000004490314	     -0.00000000000062067072	      8.84082420374429570000	     76.50798884067992800000	     68.63100380555269500000	   -123.04052811168005000000	    -37.10897862324168300000	      0.00000000000002419732	     -0.00000000000011459908	     43.26374846311733800000	    -47.44915400473276200000	    -19.68876513411411700000
      0.59100000000000041000	      1.69853649926341890000	      0.91806920453828877000	     -0.22759500834154001000	     -0.09135907647614260900	      4.30551709611440090000	     -6.53794408475220480000	    -13.87664116304523900000	     -3.78055494111637320000	     14.32177171938935200000	    -19.45675991963187100000	     14.21810586751306000000	      0.00000000000007351455	     -0.00000000000008834439	     23.95128061592594500000	      2.59946687445308560000	     -0.35731717260620666000	     -8.15702644027770770000	     -9.50022491664717350000	      0.00000000000001848939	     -0.00000000000000739105	     -2.36470414026865330000	     -2.47453270355168890000	     10.59238717705365400000	      1.39860521562062280000	      0.01277356348688620300	     -0.22882481072373251000	    -17.76663301866137000000	     44.36184021722827700000	     24.42616356147018000000	      8.98016888969076450000	    -63.72445345476491200000	    -38.87056632531240300000	   -125.14783989655578000000	   -157.81756328468376000000	      0.00000000000004487020	     -0.00000000000055487126	      8.38993714043472320000	     76.87999727519932900000	     69.05070262834623000000	   -122.55067747444201000000	    -36.24825565992337300000	      0.00000000000002671954	     -0.00000000000012044002	     43.31355953078374200000	    -47.57489284678397500000	    -19.95151983971278000000
      0.59150000000000036000	      1.69923600701684110000	      0.91807616667912983000	     -0.22770969416046469000	     -0.10024055238184645000	      4.32774689790903010000	     -6.52567458803647500000	    -13.87196016152190100000	     -3.81248554775316520000	     14.30226246294586500000	    -19.51956317257852200000	     14.13847449803354000000	      0.00000000000007354039	     -0.00000000000008864139	     23.95536165812697500000	      2.63799896700408890000	     -0.32268807139629274000	     -8.21817740909880530000	     -9.51813003050547300000	      0.00000000000001850292	     -0.00000000000000745233	     -2.34303621510900980000	     -2.49835132259418650000	     10.58234625057981400000	      1.39942243992893630000	      0.01507466135381230000	     -0.22991668962692632000	    -17.75889460583090700000	     44.55693921995589300000	     24.65122787469180200000	      9.74474651185457570000	    -63.99754692543047000000	    -39.16620502261752500000	   -126.06658681275191000000	   -160.71328144859027000000	      0.00000000000005150398	     -0.00000000000058157805	      7.93325787866271260000	     77.24762917616260400000	     69.46483768272230500000	   -122.05156524824903000000	    -35.36988092794548100000	      0.00000000000003002959	     -0.00000000000012418835	     43.35709465317530200000	    -47.69938594414910700000	    -20.21177433789733900000
